# xmcd CD database file
#
# Track frame offsets:
#	150
#	21993
#	47171
#	68342
#	92711
#	107793
#	132907
#	151421
#	185086
#	209939
#	232914
#
# Disc length: 3546 seconds
#
# Revision: 0
# Processed by: cddbd v1.5.2PL0 Copyright (c) Steve Scherf et al.
# Submitted via: CDex 1.70beta2
#
DISCID=990dd80b
DTITLE=Tom Vieth - Tired of These Blues
DYEAR=2017
DGENRE=Blues
TTITLE0=I'm on Her Mind
TTITLE1=The Last Chance
TTITLE2=Remorse
TTITLE3=Longing for Another Man
TTITLE4=Tired of These Blues
TTITLE5=Living on a Cloud of Love
TTITLE6=I Feel Like Coming Home
TTITLE7=Extension 309
TTITLE8=Still My Queen
TTITLE9=One of These Days
TTITLE10=Dreaming the Blues
EXTD=YEAR: 2017
EXTT0=
EXTT1=
EXTT2=
EXTT3=
EXTT4=
EXTT5=
EXTT6=
EXTT7=
EXTT8=
EXTT9=
EXTT10=
PLAYORDER=
